<svg width="36" height="37" fill="none" xmlns="http://www.w3.org/2000/svg"><circle cx="18" cy="18" r="18" fill="#fff"/><g clip-path="url(#clip0)"><mask id="a" maskUnits="userSpaceOnUse" x="0" y="0" width="36" height="36"><circle cx="18" cy="18" r="18" fill="#fff"/></mask><g mask="url(#a)"><path d="M28.828 28.863a11.688 11.688 0 00-2.519-3.735 11.737 11.737 0 00-3.734-2.519c-.012-.006-.025-.009-.037-.015A7.749 7.749 0 0018 8.563a7.749 7.749 0 00-7.75 7.75 7.744 7.744 0 003.213 6.284l-.038.015a11.631 11.631 0 00-3.734 2.52 11.738 11.738 0 00-2.52 3.734 11.616 11.616 0 00-.921 4.315.25.25 0 00.25.257h1.875a.25.25 0 00.25-.244 9.316 9.316 0 012.744-6.385A9.313 9.313 0 0118 24.062c2.506 0 4.86.976 6.631 2.747a9.316 9.316 0 012.744 6.385.247.247 0 00.25.243H29.5a.252.252 0 00.233-.158.248.248 0 00.017-.098 11.643 11.643 0 00-.922-4.318zM18 21.688a5.34 5.34 0 01-3.8-1.575 5.34 5.34 0 01-1.575-3.8 5.34 5.34 0 011.575-3.8 5.34 5.34 0 013.8-1.575 5.34 5.34 0 013.8 1.574 5.34 5.34 0 011.575 3.8 5.34 5.34 0 01-1.575 3.8 5.34 5.34 0 01-3.8 1.576z" fill="#AAADB1"/></g></g><defs><clipPath id="clip0"><path fill="#fff" transform="translate(2 5)" d="M0 0h32v32H0z"/></clipPath></defs></svg>