<svg width="23" height="22" fill="none" xmlns="http://www.w3.org/2000/svg"><path fill-rule="evenodd" clip-rule="evenodd" d="M11.454 2c-.861 0-1.577.633-1.705 1.462a1 1 0 01-.64.785 6.721 6.721 0 00-4.382 6.299v5a3.71 3.71 0 01-.423 1.727h4.423a1 1 0 011 1 1.728 1.728 0 003.455 0 1 1 0 011-1h4.423a3.712 3.712 0 01-.423-1.727v-5a6.724 6.724 0 00-4.385-6.299 1 1 0 01-.64-.785A1.724 1.724 0 0011.454 2zM21.91 17.273a1.726 1.726 0 01-1.727-1.727v-5c0-3.56-2.136-6.611-5.186-7.968a3.722 3.722 0 00-7.086 0 8.718 8.718 0 00-5.183 7.968v5c0 .953-.774 1.727-1.727 1.727a1 1 0 100 2h6.863a3.727 3.727 0 007.183 0h6.863a1 1 0 100-2z" fill="#AAADB1"/></svg>