<svg width="28" height="18" fill="none" xmlns="http://www.w3.org/2000/svg"><path clip-rule="evenodd" d="M13.808 1.067c-7.44 0-12.76 8.166-12.76 8.166s5.32 8.167 12.76 8.167c7.44 0 12.76-8.167 12.76-8.167s-5.32-8.166-12.76-8.166z" stroke="#7D77E9" stroke-linecap="round" stroke-linejoin="round"/><path clip-rule="evenodd" d="M13.808 13.667c2.389 0 4.325-2.09 4.325-4.667s-1.936-4.667-4.325-4.667c-2.389 0-4.325 2.09-4.325 4.667s1.936 4.667 4.325 4.667z" stroke="#7D77E9" stroke-linecap="round" stroke-linejoin="round"/><path d="M12.294 8.067c-.31.58-.309 1.295.004 1.874.313.578.89.932 1.51.926" stroke="#7D77E9" stroke-linecap="round" stroke-linejoin="round"/></svg>