<svg width="170" height="170" fill="none" xmlns="http://www.w3.org/2000/svg"><path d="M165.329 142.706h-66.43a3.314 3.314 0 00-3.306 3.32c0 3.051-2.472 5.533-5.51 5.533H79.099c-3.037 0-5.509-2.482-5.509-5.533 0-1.833-1.48-3.32-3.305-3.32H18.673v-85.32c0-3.814 3.09-6.918 6.888-6.918h41.23l.03.29-6.87 6.512a7.172 7.172 0 00-.068.067c-6.003 6.03-9.31 14.048-9.31 22.576v14.826c0 1.312.77 2.501 1.963 3.034a3.298 3.298 0 003.558-.569L70.56 84.096a3.304 3.304 0 001.915 1.511 42.547 42.547 0 0011.959 1.758h.146c4.1 0 8.171-.591 12.105-1.758a3.302 3.302 0 001.947-1.578l14.542 13.178a3.3 3.3 0 003.558.569 3.32 3.32 0 001.963-3.034V79.915c0-8.528-3.306-16.546-9.31-22.577l-6.353-6.38.061-.49h40.614c3.798 0 6.888 3.103 6.888 6.918v85.32a3.314 3.314 0 003.306 3.32 3.313 3.313 0 003.306-3.32v-85.32c0-7.476-6.056-13.559-13.5-13.559h-39.849A55.311 55.311 0 0089.77 2.505l-.581-.643A5.637 5.637 0 0085.009 0h-.042a5.637 5.637 0 00-4.194 1.923l-1.095 1.25c-9.766 11.146-14.66 25.885-13.55 40.654H25.562c-7.445 0-13.5 6.083-13.5 13.56v85.319H3.94a3.314 3.314 0 00-3.306 3.32v5.176C.634 161.567 9.03 170 19.349 170h130.569c10.32 0 18.716-8.432 18.716-18.797v-5.177c0-1.834-1.48-3.32-3.305-3.32zM100.405 71.87l1.579-12.572 2.725 2.737c4.755 4.776 7.374 11.126 7.374 17.88v7.359L99.862 76.199l.543-4.329zM84.641 7.56l.379-.431A48.673 48.673 0 0197.03 45.68l-.76 6.053-.001.007-3.183 25.347-.338 2.697c-2.677.624-5.415.94-8.167.94h-.124a35.97 35.97 0 01-7.993-.928l-2.605-25.25-.293-2.84-.726-7.041c-1.386-13.438 2.915-26.963 11.8-37.105zm-15.2 68.605L57.185 87.272v-7.359c0-6.738 2.607-13.075 7.341-17.847l3.153-2.989 1.762 17.088zm80.477 87.194H19.349c-6.674 0-12.104-5.453-12.104-12.157v-1.856h60.19c1.442 5.104 6.125 8.853 11.662 8.853h10.986c5.538 0 10.22-3.749 11.662-8.853h60.277v1.857c0 6.703-5.429 12.156-12.104 12.156z" fill="#3E3B7C"/><path d="M141.064 57.88h-16.715a3.32 3.32 0 000 6.64h13.395v64.329H33.371V64.521h10.532a3.32 3.32 0 000-6.641H30.05a3.32 3.32 0 00-3.32 3.32v70.969a3.32 3.32 0 003.32 3.32h111.013a3.32 3.32 0 003.32-3.32V61.2a3.32 3.32 0 00-3.32-3.32zM85 38.373a3.32 3.32 0 100-6.64 3.32 3.32 0 000 6.64z" fill="#3E3B7C"/><path d="M76.366 92.189a3.32 3.32 0 00-3.32 3.32v13.515a3.32 3.32 0 106.64 0V95.509a3.32 3.32 0 00-3.32-3.32zm16.869-.769a3.32 3.32 0 00-3.32 3.32v19.93a3.32 3.32 0 006.64 0V94.74a3.32 3.32 0 00-3.32-3.32z" fill="#3E3B7C"/></svg>