<svg width="36" height="37" viewBox="0 0 36 37" fill="none" xmlns="http://www.w3.org/2000/svg">
<circle cx="18" cy="18" r="18" fill="white"/>
<g clip-path="url(#clip0)">
<mask id="mask0" mask-type="alpha" maskUnits="userSpaceOnUse" x="0" y="0" width="36" height="36">
<circle cx="18" cy="18" r="18" fill="white"/>
</mask>
<g mask="url(#mask0)">
<path d="M28.8281 28.8625C28.2386 27.4662 27.3832 26.1978 26.3094 25.1281C25.2389 24.0553 23.9707 23.2 22.575 22.6094C22.5625 22.6031 22.55 22.6 22.5375 22.5938C24.4844 21.1875 25.75 18.8969 25.75 16.3125C25.75 12.0312 22.2813 8.5625 18 8.5625C13.7188 8.5625 10.25 12.0312 10.25 16.3125C10.25 18.8969 11.5156 21.1875 13.4625 22.5969C13.45 22.6031 13.4375 22.6062 13.425 22.6125C12.025 23.2031 10.7688 24.05 9.69064 25.1313C8.61786 26.2018 7.76253 27.4699 7.17189 28.8656C6.59165 30.232 6.27871 31.697 6.25002 33.1812C6.24918 33.2146 6.25503 33.2478 6.26722 33.2788C6.27941 33.3099 6.2977 33.3382 6.32099 33.3621C6.34429 33.386 6.37213 33.4049 6.40288 33.4179C6.43363 33.4308 6.46665 33.4375 6.50002 33.4375H8.37502C8.51252 33.4375 8.62189 33.3281 8.62502 33.1938C8.68752 30.7812 9.65627 28.5219 11.3688 26.8094C13.1406 25.0375 15.4938 24.0625 18 24.0625C20.5063 24.0625 22.8594 25.0375 24.6313 26.8094C26.3438 28.5219 27.3125 30.7812 27.375 33.1938C27.3781 33.3313 27.4875 33.4375 27.625 33.4375H29.5C29.5334 33.4375 29.5664 33.4308 29.5972 33.4179C29.6279 33.4049 29.6557 33.386 29.679 33.3621C29.7023 33.3382 29.7206 33.3099 29.7328 33.2788C29.745 33.2478 29.7509 33.2146 29.75 33.1812C29.7188 31.6875 29.4094 30.2344 28.8281 28.8625ZM18 21.6875C16.5656 21.6875 15.2156 21.1281 14.2 20.1125C13.1844 19.0969 12.625 17.7469 12.625 16.3125C12.625 14.8781 13.1844 13.5281 14.2 12.5125C15.2156 11.4969 16.5656 10.9375 18 10.9375C19.4344 10.9375 20.7844 11.4969 21.8 12.5125C22.8156 13.5281 23.375 14.8781 23.375 16.3125C23.375 17.7469 22.8156 19.0969 21.8 20.1125C20.7844 21.1281 19.4344 21.6875 18 21.6875Z" fill="#AAADB1"/>
</g>
</g>
<defs>
<clipPath id="clip0">
<rect width="32" height="32" fill="white" transform="translate(2 5)"/>
</clipPath>
</defs>
</svg>
