<svg width="23" height="22" viewBox="0 0 23 22" fill="none" xmlns="http://www.w3.org/2000/svg">
<path fill-rule="evenodd" clip-rule="evenodd" d="M11.4545 2C10.5928 2 9.87655 2.63337 9.74932 3.4618C9.69428 3.82019 9.44956 4.1207 9.10974 4.24718C6.54872 5.20044 4.72727 7.6592 4.72727 10.5455V15.5455C4.72727 16.1688 4.5742 16.7564 4.30364 17.2727H8.72727C9.27956 17.2727 9.72727 17.7204 9.72727 18.2727C9.72727 19.2272 10.4991 20 11.4545 20C12.4079 20 13.1818 19.2266 13.1818 18.2727C13.1818 17.7204 13.6295 17.2727 14.1818 17.2727H18.605C18.3346 16.7564 18.1818 16.1687 18.1818 15.5455V10.5455C18.1818 7.65978 16.3582 5.20064 13.7966 4.24718C13.457 4.12079 13.2124 3.82058 13.1571 3.46247C13.029 2.63171 12.3145 2 11.4545 2ZM21.9091 17.2727C20.9536 17.2727 20.1818 16.5 20.1818 15.5455V10.5455C20.1818 6.98517 18.0459 3.93455 14.9961 2.5776C14.5119 1.08333 13.1139 0 11.4545 0C9.79675 0 8.39454 1.08205 7.91009 2.5777C4.86014 3.93489 2.72727 6.98577 2.72727 10.5455V15.5455C2.72727 16.4993 1.95339 17.2727 1 17.2727C0.447715 17.2727 0 17.7204 0 18.2727C0 18.825 0.447715 19.2727 1 19.2727H7.8628C8.29933 20.8455 9.74049 22 11.4545 22C13.1659 22 14.6089 20.8458 15.0461 19.2727H21.9091C22.4614 19.2727 22.9091 18.825 22.9091 18.2727C22.9091 17.7204 22.4614 17.2727 21.9091 17.2727Z" fill="#AAADB1"/>
</svg>
