<svg width="36" height="36" viewBox="0 0 36 36" fill="none" xmlns="http://www.w3.org/2000/svg">
<path fill-rule="evenodd" clip-rule="evenodd" d="M33.5999 33.5999V2.40008H2.40008V33.5999H33.5999ZM0 0H36V36H0V0ZM11.2652 9.58928V26.4108L14.2256 26.4096V20.8791H17.9446L22.1019 26.4096H25.7101L21.1291 20.357C22.1879 19.9775 23.1082 19.2884 23.7705 18.3793C24.4093 17.4886 24.7286 16.4382 24.7286 15.2281C24.7294 13.5377 24.1162 12.1753 22.8888 11.1409C21.6615 10.1065 20.0914 9.58928 18.1786 9.58928H11.2652ZM18.0603 18.1269H14.2207L14.2244 12.344H18.0665C19.1288 12.344 20.0122 12.6075 20.7166 13.1346C21.0436 13.3793 21.309 13.6969 21.4918 14.0621C21.6747 14.4273 21.7699 14.8301 21.7699 15.2385C21.7699 15.6469 21.6747 16.0497 21.4918 16.4149C21.309 16.7802 21.0436 17.0977 20.7166 17.3424C20.013 17.8654 19.1276 18.1269 18.0603 18.1269Z" fill="white"/>
</svg>
