<svg width="4" height="16" viewBox="0 0 4 16" fill="none" xmlns="http://www.w3.org/2000/svg">
	<path d="M4 8.0002C4 7.74888 3.9505 7.50003 3.85432 7.26784C3.75815 7.03565 3.61718 6.82468 3.43947 6.64697C3.26176 6.46926 3.05079 6.3283 2.81861 6.23212C2.58642 6.13595 2.33756 6.08644 2.08624 6.08644C1.83492 6.08644 1.58607 6.13595 1.35388 6.23212C1.12169 6.3283 0.91072 6.46926 0.733011 6.64697C0.555302 6.82468 0.414335 7.03565 0.31816 7.26784C0.221985 7.50003 0.172484 7.74888 0.172484 8.0002C0.1726 8.50776 0.374337 8.99449 0.733318 9.3533C1.0923 9.71212 1.57912 9.91364 2.08668 9.91352C2.59424 9.91341 3.08096 9.71167 3.43978 9.35269C3.7986 8.99371 4.00011 8.50689 4 7.99933L4 8.0002ZM4 1.91374C4 1.66242 3.9505 1.41357 3.85432 1.18138C3.75815 0.949191 3.61718 0.73822 3.43947 0.560511C3.26176 0.382802 3.05079 0.241836 2.81861 0.145661C2.58642 0.0494855 2.33756 -1.53315e-05 2.08624 -1.53424e-05C1.83492 -1.53534e-05 1.58607 0.0494854 1.35388 0.145661C1.12169 0.241836 0.91072 0.382802 0.733011 0.560511C0.555303 0.73822 0.414335 0.949191 0.31816 1.18138C0.221985 1.41357 0.172485 1.66242 0.172485 1.91374C0.1726 2.4213 0.374337 2.90803 0.733318 3.26684C1.0923 3.62566 1.57912 3.82718 2.08668 3.82706C2.59424 3.82695 3.08096 3.62521 3.43978 3.26623C3.7986 2.90725 4.00012 2.42043 4 1.91287L4 1.91374ZM4 14.0867C4 13.8353 3.9505 13.5865 3.85432 13.3543C3.75815 13.1221 3.61718 12.9111 3.43947 12.7334C3.26176 12.5557 3.05079 12.4148 2.81861 12.3186C2.58642 12.2224 2.33756 12.1729 2.08624 12.1729C1.83492 12.1729 1.58607 12.2224 1.35388 12.3186C1.12169 12.4148 0.91072 12.5557 0.733011 12.7334C0.555302 12.9111 0.414335 13.1221 0.31816 13.3543C0.221984 13.5865 0.172484 13.8353 0.172484 14.0867C0.172599 14.5942 0.374337 15.0809 0.733318 15.4398C1.0923 15.7986 1.57912 16.0001 2.08668 16C2.59424 15.9999 3.08096 15.7981 3.43978 15.4392C3.7986 15.0802 4.00011 14.5934 4 14.0858L4 14.0867Z" fill="#7F8FA4" />
</svg>
